<?xml version="1.0" encoding="utf-8"?><svg viewBox="0 0 225 112" xmlns="http://www.w3.org/2000/svg" xmlns:xlink="http://www.w3.org/1999/xlink"><style>:root>svg{display:none}:root>svg:target{display:block}</style><svg fill="none" viewBox="0 0 150 112" id="alibaba" xmlns="http://www.w3.org/2000/svg"><path d="M11.613 95.089H4.45l11.025-21.206h7.913L33.925 95.09h-7.95l-1.612-3.808H13.3l-1.687 3.808zM22.45 86.65l-3.412-7.728-3.6 7.728h7.012zM35.55 73.883h6.863v21.205H35.55V73.883zM45.9 73.883h6.863v4.33H45.9v-4.33zm0 6.42h6.863v14.785H45.9V80.304zM56.51 73.866h6.862v8.55c.825-.822 1.725-1.456 2.737-1.867a8.658 8.658 0 013.3-.635c2.325 0 4.2.747 5.625 2.24 1.425 1.493 2.138 3.472 2.138 5.899 0 2.24-.713 4.032-2.1 5.376-1.388 1.344-3.263 2.016-5.588 2.016-1.275 0-2.437-.224-3.487-.71-1.05-.448-1.913-1.157-2.663-2.053 0 .486 0 .933-.075 1.344-.037.41-.112.747-.187 1.046h-6.863c.075-.262.15-.635.188-1.046.037-.41.075-.896.075-1.418V73.865h.037zm13.762 13.888c0-1.306-.3-2.315-.938-3.099-.6-.746-1.462-1.12-2.512-1.12-1.125 0-1.988.374-2.625 1.083-.6.71-.9 1.792-.9 3.174 0 1.306.3 2.314.9 3.023.6.71 1.462 1.083 2.55 1.083 1.087 0 1.912-.373 2.55-1.12.637-.747.975-1.755.975-3.024zM92.846 92.712c-.637.858-1.5 1.493-2.55 1.904-1.05.41-2.287.634-3.787.634-2.1 0-3.75-.373-4.875-1.12-1.125-.746-1.688-1.792-1.688-3.173 0-1.867.975-3.21 2.925-4.032 1.95-.821 5.25-1.27 9.863-1.307v-.149-.186c0-.747-.225-1.307-.675-1.68-.45-.374-1.125-.56-2.063-.56-.825 0-1.462.149-1.912.41-.45.261-.713.672-.788 1.232H80.96c.037-1.642.825-2.874 2.325-3.659 1.537-.783 3.862-1.194 7.012-1.194 3 0 5.25.448 6.75 1.419 1.463.933 2.213 2.351 2.213 4.255v7.542c0 .448.037.858.075 1.12.037.298.112.56.225.784h-6.375c-.113-.336-.225-.71-.263-1.083a11.257 11.257 0 01-.075-1.157zm-.15-4.219c-2.212 0-3.75.15-4.537.448-.788.299-1.2.784-1.2 1.493 0 .486.187.86.6 1.158.375.261.937.41 1.65.41 1.162 0 2.025-.26 2.625-.82.6-.524.862-1.345.862-2.465v-.224zM102.4 73.866h6.862v8.55c.825-.822 1.725-1.456 2.738-1.867a8.656 8.656 0 013.3-.635c2.325 0 4.2.747 5.625 2.24 1.425 1.493 2.137 3.472 2.137 5.899 0 2.24-.712 4.032-2.1 5.376-1.387 1.344-3.262 2.016-5.587 2.016-1.275 0-2.438-.224-3.488-.71-1.05-.448-1.912-1.157-2.662-2.053 0 .486-.038.933-.075 1.344-.038.41-.113.747-.188 1.046H102.1c.075-.262.15-.635.187-1.046.038-.41.075-.896.075-1.418V73.865h.038zm13.762 13.888c0-1.306-.3-2.315-.937-3.099-.6-.746-1.463-1.12-2.513-1.12-1.125 0-1.987.374-2.587 1.083-.6.71-.9 1.792-.9 3.174 0 1.306.3 2.314.9 3.023.6.71 1.462 1.083 2.55 1.083 1.05 0 1.912-.373 2.55-1.12.637-.747.937-1.755.937-3.024zM138.737 92.712c-.637.858-1.5 1.493-2.55 1.904-1.05.41-2.287.634-3.787.634-2.1 0-3.75-.373-4.875-1.12-1.125-.746-1.688-1.792-1.688-3.173 0-1.867.975-3.21 2.925-4.032 1.95-.821 5.25-1.27 9.863-1.307v-.149-.186c0-.747-.225-1.307-.675-1.68-.45-.374-1.125-.56-2.063-.56-.825 0-1.462.149-1.912.41-.45.261-.713.672-.788 1.232h-6.337c.037-1.642.825-2.874 2.325-3.659 1.537-.783 3.862-1.194 7.012-1.194 3 0 5.25.448 6.75 1.419 1.463.933 2.213 2.351 2.213 4.255v7.542c0 .448.037.858.075 1.12.037.298.112.56.225.784h-6.375c-.113-.336-.225-.71-.263-1.083-.037-.373-.075-.747-.075-1.157zm-.15-4.219c-2.212 0-3.712.15-4.537.448-.788.299-1.2.784-1.2 1.493 0 .486.187.86.6 1.158.375.261.937.41 1.65.41 1.162 0 2.025-.26 2.625-.82.6-.524.862-1.345.862-2.465v-.224z" fill="#F60"/><path d="M45.19 57.534c-.375-.037-.975-.373-1.387-.709-4.013-3.92 1.125-8.437 7.125-11.05v-7.467c1.387.896 2.175.933 2.212 1.045l4.575-4.517-1.537-3.883c13.387-4.592 18.75-6.347 29.625-8.176l-1.95-1.83 3.187-1.791c7.313 2.39 14.213 3.024 13.013 9.146.3-4.144-4.875-5.712-12.75-7.914l-1.538.933 2.925 2.39c-13.012 2.24-21.037 4.778-30.562 8.063l1.312 3.36-4.8 4.742c.788.224 9.15 2.986 17.813-3.024 0 0 .187-.112.187-.187-.262-.41-.862-.896-1.575-1.53 2.55.186 4.2 2.389 3.9 4.703h-1.2c.075-.746-.075-1.568-.337-2.09-6.713 4.89-14.513 5.6-21.15 3.285v5.787c-3.225 1.12-8.963 4.666-8.925 8.101.225 1.605 1.05 2.203 1.837 2.613z" fill="#000"/><path d="M72.645 55.622c-7.2 3.621-14.1 6.533-24.712 6.944-13.838-.299-15.975-9.446-9.45-19.003 6.187-9.632 16.012-18.368 31.612-23.819 4.538-1.605 11.175-3.397 17.588-3.509 9.225-.075 18.187 2.763 17.587 11.573-.337 6.758-10.125 16.24-15.262 23.072-2.213 2.987-2.588 4.928 1.2 4.742 13.687-.896 26.062-5.6 37.575-10.49-7.8 5.263-48.038 25.087-48.188 11.572.038-1.717.825-3.546 2.138-5.488 1.275-1.94 3.037-3.957 4.875-6.01 2.737-3.099 9.562-10.566 11.85-15.046 3.862-8.362-4.763-8.773-12.225-11.386l-3.188 1.792 1.95 1.83C75.12 24.186 69.758 25.978 56.37 30.57l1.538 3.883-4.538 4.48c-.112-.112-.787-.15-2.212-1.046v7.467c-5.963 2.613-11.138 7.13-7.125 11.05.412.337 1.012.673 1.387.71 7.35 4.107 27.263-1.493 27.225-1.493zM115.672 60.473h.938c.187 0 .337-.038.45-.075.112-.037.187-.112.262-.187.075-.112.075-.186.075-.298a.46.46 0 00-.187-.374c-.113-.112-.3-.15-.525-.15h-1.013v1.084zm-.412 1.866v-3.322h1.5c.3 0 .525.037.675.074.15.075.262.15.375.336a.75.75 0 01.15.486.846.846 0 01-.225.597c-.15.15-.375.261-.713.299a.81.81 0 01.263.149c.112.112.262.261.375.448l.6.896h-.563l-.45-.672a1.809 1.809 0 00-.337-.485.635.635 0 00-.225-.224c-.075-.038-.113-.075-.188-.075h-.825v1.493h-.412z" fill="#F60"/><path d="M116.593 63.878a3.178 3.178 0 003.187-3.173 3.178 3.178 0 00-3.187-3.174 3.178 3.178 0 00-3.188 3.174 3.178 3.178 0 003.188 3.173zm-2.7-3.173c0-1.494 1.2-2.688 2.7-2.688 1.5 0 2.7 1.194 2.7 2.688 0 1.456-1.2 2.688-2.7 2.688-1.5 0-2.7-1.195-2.7-2.688z" fill="#F60"/></svg><svg fill="none" viewBox="0 0 225 60" id="macy" xmlns="http://www.w3.org/2000/svg"><path d="M25.02 0l-5.872 17.717H0l15.457 10.957L9.652 46.48 25.02 35.523 40.455 46.48l-5.872-17.805L49.95 17.716H30.892L25.02 0z" fill="#E22130"/><path d="M103.68 16.149c-1.17-1.149-2.43-1.988-4.028-2.474-1.507-.575-3.284-.818-5.197-.818-1.935 0-3.69.332-5.468 1.083-1.754.75-3.194 1.811-4.364 2.96l-.09.088c-.585.663-1.103 1.326-1.508 2.055-.338.663-.675 1.237-.833 1.723-.157-.331-.427-.906-.764-1.48-.585-1.083-1.103-1.9-1.508-2.232-1.17-1.325-2.52-2.23-4.275-2.96-1.755-.75-3.6-1.082-5.715-1.082-1.35 0-3.285.154-5.378 1.149-2.43 1.148-4.455 2.96-5.872 5.61v-5.92h-1.935V46.9h1.935V28.1c0-2.143.248-3.954.765-5.611.495-1.657 1.26-2.894 2.273-4.131.832-1.149 2.092-2.055 3.532-2.629 1.418-.663 2.948-.994 4.522-.906 1.935.089 3.6.42 5.13 1.083 1.418.662 2.61 1.657 3.6 2.805.833 1.15 1.418 2.143 1.755 3.292.495 1.392.675 3.049.675 5.368v19.463h1.936V28.21c0-2.298.09-4.198.495-5.766.427-1.48 1.012-2.63 2.182-4.131 1.013-1.326 2.272-2.232 4.028-2.894 1.417-.486 3.015-.818 4.522-.818 1.688 0 3.105.243 4.455.752 1.35.508 2.34 1.237 3.285 2.142 1.17 1.15 2.025 2.563 2.52 4.374.585 1.812.833 3.866.833 6.429v18.535h1.935l.337-18.623c0-2.718-.337-5.103-1.012-7.092-.585-1.988-1.44-3.733-2.768-4.97zM141.863 22.246c-1.013-2.297-2.948-4.617-5.468-6.274-2.947-1.988-6.457-2.96-10.147-2.96-6.705 0-10.823 2.96-13.185 5.523-2.858 3.137-4.523 7.422-4.523 11.796 0 4.375 1.688 8.66 4.523 11.797 2.272 2.474 6.457 5.523 13.185 5.523 3.442 0 6.547-.817 9.315-2.386 2.61-1.657 4.702-3.8 6.3-6.671v8.328h1.935V13.94h-1.935v8.306zm-1.08 1.9c.337.906.675 1.811.832 2.717.248.994.338 2.055.338 2.96.09 1.083 0 2.055-.158 2.96a11.548 11.548 0 01-.765 2.806c-1.102 3.049-3.015 5.678-5.625 7.423-2.52 1.811-5.715 2.717-8.977 2.717-4.86 0-8.888-1.723-11.835-4.86-2.52-2.806-4.118-6.672-4.118-10.714 0-4.374 1.688-8.24 4.523-11.134 2.947-2.806 6.885-4.44 11.25-4.44 3.195 0 6.3.905 8.82 2.474 2.61 1.9 4.612 4.285 5.715 7.091zM151.2 18.866c1.755-1.569 3.533-2.563 5.288-3.292 1.755-.662 3.69-1.082 6.052-1.082h.158c2.857 0 5.782.817 8.235 2.231 2.857 1.812 5.04 4.286 6.21 7.423l.09.154h2.182l-.157-.33c-1.35-3.712-3.87-6.76-7.223-8.727-2.767-1.657-6.12-2.474-9.405-2.474-4.86 0-9.315 1.811-12.6 5.037-3.285 3.225-5.13 7.665-5.13 12.437 0 4.44 1.755 8.726 4.613 11.863 3.285 3.535 7.897 5.434 13.432 5.434 3.6 0 7.133-1.082 9.99-3.048a17.034 17.034 0 006.3-7.997l.158-.331h-2.183l-.09.154c-.832 2.386-2.61 4.706-4.95 6.34-2.677 2.055-6.12 3.049-9.652 3.049-2.093 0-4.118-.42-6.053-1.149-1.935-.817-3.532-1.9-5.04-3.225-1.507-1.48-2.61-3.137-3.442-5.103-.833-1.9-1.26-4.043-1.26-6.186s.495-4.374 1.26-6.34c.697-1.856 1.867-3.512 3.217-4.838zm22.658-.155c1.507 1.392 2.767 3.226 3.6 5.369-.833-2.077-2.093-3.8-3.6-5.369z" fill="#231F20"/><path d="M206.595 13.763h-2.182l-.091.155c0 .154-3.284 7.665-6.547 15.243l-6.457 14.911-6.12-14.911c-3.938-9.897-6.21-15.177-6.21-15.243l-.09-.155h-2.183l13.433 32.894L184.095 60h2.183l.09-.155s.157-.42.427-1.082c1.013-2.298 3.78-8.66 6.975-15.817.833-1.9 1.688-3.866 2.61-5.855l7.898-17.894c1.35-3.048 2.182-5.036 2.182-5.103l.135-.331zM221.715 30.817c-1.845-1.325-4.117-1.988-6.39-2.474l-.247-.088c-2.61-.751-4.275-1.48-5.378-2.298-1.26-1.082-1.935-2.386-2.025-4.374 0-.905.09-1.811.428-2.562.247-.818.765-1.48 1.35-2.143.675-.751 1.507-1.237 2.34-1.657 1.012-.42 2.025-.574 3.105-.574h.157c1.013 0 1.935.154 2.678.486.832.331 1.597.817 2.182 1.391a6.19 6.19 0 011.418 2.143c.337.818.495 1.723.495 2.717v.244h1.934v-.2c0-2.385-.922-4.528-2.429-6.097-1.598-1.568-3.78-2.297-6.458-2.297-2.34 0-4.612.751-6.3 2.054-1.935 1.569-2.857 3.8-2.857 6.517.09 2.563 1.012 4.44 2.677 5.855 1.755 1.391 4.118 2.142 6.458 2.717 2.857.663 4.86 1.568 6.12 2.717 1.349 1.325 1.934 2.894 2.024 5.103v.243c0 1.083-.157 2.143-.584 2.96-.428.906-.923 1.723-1.688 2.386-.675.751-1.597 1.326-2.52 1.723-1.012.42-2.092.575-3.195.575-2.43 0-4.612-.751-6.12-2.143-1.507-1.48-2.272-3.468-2.34-5.854v-.243l-1.935.088v.663c0 1.148.248 2.231.675 3.291.428 1.083 1.013 2.055 1.845 2.806 1.013.994 2.183 1.811 3.533 2.297 1.35.486 2.767.818 4.365.818 1.417 0 2.767-.331 4.027-.818a11.734 11.734 0 003.285-2.23c.832-.906 1.597-1.989 2.025-3.138.495-1.148.675-2.386.585-3.711-.135-3.181-1.238-5.39-3.24-6.893zM205.492 11.289l2.273-1.569 2.272 1.569-.922-2.63 2.34-1.656h-2.768l-.922-2.563-.833 2.563h-2.767l2.182 1.657-.855 2.629z" fill="#231F20"/></svg></svg>